<svg width="44" height="44" viewBox="0 0 44 44" fill="none" xmlns="http://www.w3.org/2000/svg">
<rect width="44" height="44" rx="10" fill="#E01E5A"/>
<path fill-rule="evenodd" clip-rule="evenodd" d="M21.2436 14.7139C21.1319 14.7222 20.7959 14.8588 20.7959 15.4525C20.7959 16.1567 20.9384 16.9345 21.1961 17.7408C21.4442 16.792 21.5749 16.0035 21.5749 15.4525C21.5749 15.0262 21.4597 14.8433 21.4039 14.7816C21.3845 14.7584 21.3598 14.7401 21.3319 14.7283C21.304 14.7165 21.2737 14.7116 21.2436 14.7139ZM22.2945 20.2203C22.3673 20.0129 22.4362 19.8079 22.5011 19.6052C23.0129 18.0306 23.3561 16.5332 23.3561 15.4525C23.3561 14.7103 23.1507 14.0596 22.7268 13.5882C22.5276 13.3647 22.2798 13.1899 22.0025 13.0771C21.7252 12.9643 21.4258 12.9165 21.1272 12.9374C19.9587 13.0134 19.0146 14.0453 19.0146 15.4525C19.0146 17.0129 19.5371 18.7277 20.3517 20.3569C19.8487 21.6979 19.2678 23.0083 18.6121 24.2816C17.5433 24.6402 16.5399 25.0511 15.673 25.4988C14.8251 25.9358 14.0675 26.4286 13.5094 26.9713C12.9631 27.5033 12.5 28.1908 12.5 29.0078C12.5 29.56 12.6864 30.0885 13.0795 30.4839C13.4714 30.8782 14.001 31.067 14.5544 31.067C15.1968 31.067 15.787 30.7796 16.2857 30.4174C16.794 30.0481 17.288 29.541 17.7582 28.9627C18.4755 28.0792 19.1868 26.9642 19.8459 25.7577C21.0693 25.3834 22.3161 25.0902 23.5782 24.8801C24.1618 25.4803 24.8003 26.0246 25.4853 26.5058C26.5838 27.2646 27.795 27.7954 28.9801 27.7954C29.5822 27.7954 30.208 27.6458 30.702 27.2492C31.2221 26.83 31.5 26.2148 31.5 25.5035C31.5 24.6034 31.0108 23.9443 30.3327 23.5323C29.6974 23.144 28.8709 22.9504 28.0076 22.8637C26.9091 22.7545 25.6088 22.8079 24.2468 22.9825C23.5039 22.1309 22.8497 21.2046 22.2945 20.2203ZM21.4929 22.3115C21.3104 22.7484 21.12 23.1819 20.9218 23.6118C21.3522 23.5052 21.785 23.4078 22.2197 23.3197C21.9665 22.9917 21.7241 22.6554 21.4929 22.3115ZM25.9271 24.6129C26.1171 24.7673 26.3075 24.9098 26.4983 25.0404C27.4506 25.6983 28.3044 26.0142 28.9801 26.0142C29.3091 26.0142 29.4979 25.931 29.5857 25.8598C29.6475 25.8111 29.7188 25.7256 29.7188 25.5035C29.7188 25.3503 29.6713 25.2138 29.4064 25.0523C29.1001 24.867 28.5811 24.7103 27.8306 24.6367C27.1976 24.5802 26.5613 24.5723 25.9271 24.6129ZM17.1704 26.754C16.9329 26.8608 16.7057 26.9705 16.4888 27.0829C15.7229 27.4783 15.1351 27.8762 14.7515 28.249C14.3549 28.6362 14.2812 28.8903 14.2812 29.0078C14.2812 29.1575 14.3276 29.2121 14.3406 29.2263C14.3561 29.2406 14.4083 29.2857 14.5544 29.2857C14.6672 29.2857 14.8916 29.2299 15.2384 28.977C15.5768 28.7312 15.9604 28.35 16.3748 27.8405C16.6384 27.5152 16.9036 27.153 17.1704 26.754Z" fill="white"/>
</svg>
