<svg width="32" height="32" viewBox="0 0 32 32" fill="none" xmlns="http://www.w3.org/2000/svg">
<rect width="32" height="32" rx="8.05755" fill="#2E8CFF"/>
<rect x="8" y="9" width="16" height="16" fill="#2E8CFF"/>
<path d="M8 13H24.5M20 10V7M12.5 10V7M9.5 25H23C23.8284 25 24.5 24.3284 24.5 23.5V10C24.5 9.17157 23.8284 8.5 23 8.5H9.5C8.67157 8.5 8 9.17157 8 10V23.5C8 24.3284 8.67157 25 9.5 25Z" stroke="white" stroke-width="1.5" stroke-linecap="round" stroke-linejoin="round"/>
<mask id="path-4-inside-1_11_708" fill="white">
<path d="M12.5 17.5C13.1213 17.5 13.625 18.0037 13.625 18.625C13.625 19.2463 13.1213 19.75 12.5 19.75C11.8787 19.75 11.375 19.2463 11.375 18.625C11.375 18.0037 11.8787 17.5 12.5 17.5ZM16.25 17.5C16.8713 17.5 17.375 18.0037 17.375 18.625C17.3749 19.2463 16.8713 19.75 16.25 19.75C15.6287 19.75 15.1251 19.2463 15.125 18.625C15.125 18.0037 15.6287 17.5 16.25 17.5ZM20 17.5C20.6213 17.5 21.125 18.0037 21.125 18.625C21.1249 19.2463 20.6213 19.75 20 19.75C19.3787 19.75 18.8751 19.2463 18.875 18.625C18.875 18.0037 19.3787 17.5 20 17.5Z"/>
</mask>
<path d="M12.5 17.5C13.1213 17.5 13.625 18.0037 13.625 18.625C13.625 19.2463 13.1213 19.75 12.5 19.75C11.8787 19.75 11.375 19.2463 11.375 18.625C11.375 18.0037 11.8787 17.5 12.5 17.5ZM16.25 17.5C16.8713 17.5 17.375 18.0037 17.375 18.625C17.3749 19.2463 16.8713 19.75 16.25 19.75C15.6287 19.75 15.1251 19.2463 15.125 18.625C15.125 18.0037 15.6287 17.5 16.25 17.5ZM20 17.5C20.6213 17.5 21.125 18.0037 21.125 18.625C21.1249 19.2463 20.6213 19.75 20 19.75C19.3787 19.75 18.8751 19.2463 18.875 18.625C18.875 18.0037 19.3787 17.5 20 17.5Z" fill="white"/>
<path d="M12.5 17.5L12.5 16H12.5V17.5ZM12.5 19.75V21.25H12.5L12.5 19.75ZM16.25 17.5V16H16.25L16.25 17.5ZM17.375 18.625L18.875 18.6252V18.625H17.375ZM16.25 19.75L16.25 21.25H16.25V19.75ZM15.125 18.625H13.625V18.6252L15.125 18.625ZM20 17.5L20 16H20V17.5ZM21.125 18.625L22.625 18.6252V18.625H21.125ZM20 19.75V21.25H20L20 19.75ZM18.875 18.625H17.375V18.6252L18.875 18.625ZM12.5 17.5L12.5 19C12.2929 19 12.125 18.8321 12.125 18.625H13.625H15.125C15.125 17.1753 13.9497 16 12.5 16L12.5 17.5ZM13.625 18.625H12.125C12.125 18.4179 12.2929 18.25 12.5 18.25L12.5 19.75L12.5 21.25C13.9497 21.25 15.125 20.0747 15.125 18.625H13.625ZM12.5 19.75V18.25C12.7071 18.25 12.875 18.4179 12.875 18.625H11.375H9.875C9.875 20.0747 11.0503 21.25 12.5 21.25V19.75ZM11.375 18.625H12.875C12.875 18.8321 12.7071 19 12.5 19V17.5V16C11.0503 16 9.875 17.1753 9.875 18.625H11.375ZM16.25 17.5V19C16.0429 19 15.875 18.8321 15.875 18.625H17.375H18.875C18.875 17.1753 17.6997 16 16.25 16V17.5ZM17.375 18.625L15.875 18.6248C15.875 18.418 16.0427 18.25 16.25 18.25V19.75V21.25C17.6999 21.25 18.8748 20.0745 18.875 18.6252L17.375 18.625ZM16.25 19.75L16.25 18.25C16.4573 18.25 16.625 18.418 16.625 18.6248L15.125 18.625L13.625 18.6252C13.6252 20.0745 14.8001 21.25 16.25 21.25L16.25 19.75ZM15.125 18.625H16.625C16.625 18.8321 16.4571 19 16.25 19L16.25 17.5L16.25 16C14.8003 16 13.625 17.1753 13.625 18.625H15.125ZM20 17.5L20 19C19.7929 19 19.625 18.8321 19.625 18.625H21.125H22.625C22.625 17.1753 21.4497 16 20 16L20 17.5ZM21.125 18.625L19.625 18.6248C19.625 18.418 19.7927 18.25 20 18.25L20 19.75L20 21.25C21.4499 21.25 22.6248 20.0745 22.625 18.6252L21.125 18.625ZM20 19.75V18.25C20.2073 18.25 20.375 18.418 20.375 18.6248L18.875 18.625L17.375 18.6252C17.3752 20.0745 18.5501 21.25 20 21.25V19.75ZM18.875 18.625H20.375C20.375 18.8321 20.2071 19 20 19V17.5V16C18.5503 16 17.375 17.1753 17.375 18.625H18.875Z" fill="white" mask="url(#path-4-inside-1_11_708)"/>
</svg>
