<svg width="32" height="32" viewBox="0 0 32 32" fill="none" xmlns="http://www.w3.org/2000/svg">
<rect width="32" height="32" rx="8.05755" fill="#253471"/>
<path d="M15.4243 10.2084C15.4243 9.89143 15.64 9.61519 15.9475 9.53833L22.8539 7.81171C23.2898 7.70273 23.7121 8.03242 23.7121 8.48173V23.6687C23.7121 24.1068 23.3095 24.4342 22.8806 24.3448L15.9741 22.906C15.6538 22.8392 15.4243 22.557 15.4243 22.2298V10.2084Z" fill="#6772A1"/>
<path d="M13.1221 10.2084C13.1221 9.89143 13.3378 9.61519 13.6452 9.53833L20.5517 7.81171C20.9876 7.70273 21.4098 8.03242 21.4098 8.48173V23.6687C21.4098 24.1068 21.0072 24.4342 20.5783 24.3448L13.6719 22.906C13.3516 22.8392 13.1221 22.557 13.1221 22.2298V10.2084Z" fill="#9EAADB"/>
<path d="M10.8198 10.2084C10.8198 9.89143 11.0355 9.61519 11.343 9.53833L18.2494 7.81171C18.6853 7.70273 19.1076 8.03242 19.1076 8.48173V23.6687C19.1076 24.1068 18.705 24.4342 18.2761 24.3448L11.3696 22.906C11.0493 22.8392 10.8198 22.557 10.8198 22.2298V10.2084Z" fill="#D7DFFF"/>
<path d="M8.2876 10.2084C8.2876 9.89143 8.50329 9.61519 8.81074 9.53833L15.7172 7.81171C16.1531 7.70273 16.5754 8.03242 16.5754 8.48173V23.6687C16.5754 24.1068 16.1727 24.4342 15.7439 24.3448L8.83738 22.906C8.51712 22.8392 8.2876 22.557 8.2876 22.2298V10.2084Z" fill="white"/>
</svg>
